<svg width="32" height="32" viewBox="0 0 32 32" fill="none" xmlns="http://www.w3.org/2000/svg">
<path d="M0 32L1.01734 25.8343L14.4277 16.0925C15.3218 15.4451 16.0925 14.8388 16.7399 14.2736C17.3976 13.6981 17.9268 13.1073 18.3276 12.501C18.7283 11.8947 18.9904 11.2216 19.1137 10.4817C19.2473 9.66988 19.1856 8.97624 18.9287 8.40077C18.6821 7.81503 18.2813 7.36801 17.7264 7.05973C17.1715 6.75144 16.5035 6.5973 15.7225 6.5973C14.9313 6.5973 14.2068 6.75658 13.5491 7.07515C12.8915 7.39371 12.3417 7.86127 11.8998 8.47784C11.4682 9.09441 11.1805 9.84457 11.0366 10.7283H2.89788C3.26782 8.50867 4.08478 6.5973 5.34875 4.99422C6.62299 3.39114 8.23635 2.158 10.1888 1.2948C12.1516 0.431599 14.3558 0 16.8015 0C19.3295 0 21.4566 0.40591 23.183 1.21773C24.9094 2.01927 26.158 3.14965 26.9287 4.60886C27.7097 6.06808 27.9306 7.77906 27.5915 9.74181C27.386 10.9544 26.9287 12.1567 26.2197 13.3487C25.5209 14.5408 24.3956 15.8664 22.8439 17.3256C21.3025 18.7746 19.1651 20.501 16.4316 22.5048L13.0713 24.9711L13.0405 25.1561H25.3719L24.2312 32H0Z" fill="#4C4C4C"/>
</svg>
