<svg width="32" height="32" viewBox="0 0 32 32" fill="none" xmlns="http://www.w3.org/2000/svg">
<path d="M11.4572 32C8.9223 32 6.74739 31.5792 4.93244 30.7376C3.11748 29.8859 1.77908 28.7148 0.917227 27.2243C0.0655162 25.7338 -0.193039 24.0203 0.141562 22.0836H8.537C8.42547 22.6819 8.50151 23.2193 8.76514 23.6958C9.0389 24.1622 9.45462 24.5273 10.0123 24.7909C10.57 25.0545 11.2138 25.1863 11.9438 25.1863C12.8158 25.1863 13.6016 25.0089 14.3013 24.654C15.011 24.2991 15.589 23.8378 16.0351 23.27C16.4914 22.7022 16.7702 22.1039 16.8716 21.4753C16.9831 20.8264 16.8767 20.2991 16.5522 19.8935C16.2277 19.4778 15.7461 19.1736 15.1073 18.981C14.4686 18.7782 13.7182 18.6768 12.8564 18.6768H9.51038L10.4838 12.8365H13.4648C14.3266 12.8365 15.1175 12.6793 15.8374 12.365C16.5573 12.0507 17.1555 11.6198 17.6321 11.0722C18.1086 10.5146 18.4027 9.88593 18.5142 9.18631C18.6054 8.64892 18.5598 8.18251 18.3773 7.78707C18.2049 7.3815 17.8957 7.06717 17.4495 6.84411C17.0136 6.62104 16.4356 6.50951 15.7157 6.50951C14.935 6.50951 14.1847 6.64639 13.4648 6.92015C12.7449 7.19392 12.1416 7.57415 11.6549 8.06084C11.1682 8.54753 10.8792 9.1052 10.788 9.73384H2.75753C3.07185 7.82763 3.85766 6.14449 5.11495 4.68441C6.37223 3.22433 7.95398 2.07858 9.86019 1.24715C11.7765 0.415716 13.8703 0 16.1416 0C18.5142 0 20.5319 0.435995 22.1948 1.30798C23.8577 2.17998 25.0795 3.33587 25.8602 4.77567C26.6409 6.21546 26.8893 7.78707 26.6054 9.49049C26.3013 11.3257 25.4749 12.7148 24.1264 13.6578C22.7778 14.6008 21.0896 15.1584 19.0617 15.3308V15.5741C21.2721 15.8276 22.9806 16.6388 24.1872 18.0076C25.3938 19.3764 25.8348 21.0596 25.5104 23.057C25.2366 24.7605 24.4508 26.2864 23.153 27.635C21.8551 28.9835 20.1923 30.0482 18.1644 30.8289C16.1466 31.6096 13.9109 32 11.4572 32Z" fill="#4C4C4C"/>
</svg>
