<svg width="57" height="64" viewBox="0 0 57 64" fill="none" xmlns="http://www.w3.org/2000/svg">
<g clip-path="url(#clip0_828_6256)">
<path fill-rule="evenodd" clip-rule="evenodd" d="M30.0545 11.2134C30.0545 9.80165 29.7278 8.40932 29.1001 7.14663C28.5575 6.05518 28.239 4.86505 28.1633 3.64714L27.9818 0.727295L27.8005 3.64703C27.7247 4.86496 27.4061 6.05513 26.8636 7.1466C26.2359 8.40931 25.9091 9.80168 25.9091 11.2134V52.7866C25.9091 54.1983 26.2359 55.5907 26.8636 56.8535C27.4061 57.9449 27.7247 59.1351 27.8005 60.3531L27.9818 63.2728L28.1633 60.3529C28.239 59.135 28.5575 57.9449 29.1001 56.8534C29.7278 55.5907 30.0545 54.1984 30.0545 52.7866V11.2134ZM18.7364 11.3163C19.3642 12.579 19.6909 13.9714 19.6909 15.3831V48.6169C19.6909 50.0288 19.3642 51.421 18.7364 52.6838C18.1939 53.7752 17.8753 54.9654 17.7995 56.1832L17.6182 59.1031L17.4368 56.1832C17.361 54.9654 17.0425 53.7752 16.4999 52.6838C15.8722 51.421 15.5455 50.0288 15.5455 48.6169V15.3831C15.5455 13.9714 15.8722 12.579 16.4999 11.3163C17.0425 10.2249 17.361 9.03473 17.4368 7.8168L17.6182 4.89701L17.7995 7.8168C17.8753 9.03473 18.1939 10.2249 18.7364 11.3163ZM14.5091 19.5528C14.5091 18.141 14.1824 16.7487 13.5546 15.4861C13.0121 14.3945 12.6935 13.2044 12.6178 11.9865L12.4364 9.06668L12.2549 11.9865C12.1793 13.2044 11.8607 14.3945 11.3181 15.4861C10.6904 16.7487 10.3636 18.141 10.3636 19.5528V44.4472C10.3636 45.8589 10.6904 47.2513 11.3181 48.514C11.8607 49.6055 12.1793 50.7956 12.2549 52.0135L12.4364 54.9334L12.6178 52.0135C12.6935 50.7956 13.0121 49.6055 13.5546 48.514C14.1824 47.2513 14.5091 45.8589 14.5091 44.4472V19.5528ZM8.37282 23.8253C9.00049 25.0881 9.32727 26.4804 9.32727 27.8922V36.1078C9.32727 37.5195 9.00049 38.9119 8.37282 40.1746C7.83026 41.2661 7.51165 42.4562 7.43597 43.6741L7.25455 46.594L7.07312 43.6741C6.99744 42.4562 6.67883 41.2661 6.13627 40.1746C5.5086 38.9119 5.18182 37.5195 5.18182 36.1078V27.8922C5.18182 26.4804 5.5086 25.0881 6.13627 23.8253C6.67883 22.7339 6.99744 21.5437 7.07312 20.3259L7.25455 17.4061L7.43597 20.3259C7.51165 21.5437 7.83026 22.7339 8.37282 23.8253ZM4.14525 32L4.14545 32.0619V31.9381L4.14525 32ZM0 32.0619L0.000209115 32C0.0096113 33.3906 0.335946 34.7608 0.954453 36.0049C1.49701 37.0964 1.81562 38.2865 1.8913 39.5044L2.07273 42.4243L2.25416 39.5044C2.32984 38.2865 2.64844 37.0964 3.191 36.0049C3.8095 34.7608 4.13584 33.3906 4.14525 32C4.13584 30.6094 3.8095 29.2393 3.191 27.9952C2.64844 26.9036 2.32984 25.7136 2.25416 24.4956L2.07273 21.5758L1.8913 24.4956C1.81562 25.7136 1.49701 26.9036 0.954453 27.9952C0.335946 29.2393 0.00961133 30.6094 0.000209115 32L0 31.9381V32.0619ZM23.9182 7.14662C24.546 8.40931 24.8727 9.80166 24.8727 11.2134V52.7866C24.8727 54.1984 24.546 55.5907 23.9182 56.8534C23.3757 57.9449 23.0571 59.135 22.9814 60.3529L22.8 63.2728L22.6186 60.3529C22.5429 59.135 22.2243 57.9449 21.6818 56.8534C21.054 55.5907 20.7273 54.1984 20.7273 52.7866V11.2134C20.7273 9.80166 21.054 8.40931 21.6818 7.14662C22.2243 6.05515 22.5429 4.865 22.6186 3.64709L22.8 0.727295L22.9814 3.64709C23.0571 4.865 23.3757 6.05515 23.9182 7.14662ZM34.2819 7.14662C34.9096 8.40931 35.2364 9.80166 35.2364 11.2134V52.7866C35.2364 54.1984 34.9096 55.5907 34.2819 56.8534C33.7393 57.9449 33.4208 59.135 33.345 60.3529L33.1636 63.2728L32.9823 60.3529C32.9065 59.135 32.5879 57.9449 32.0454 56.8534C31.4176 55.5907 31.0909 54.1984 31.0909 52.7866V11.2134C31.0909 9.80166 31.4176 8.40931 32.0454 7.14662C32.5879 6.05515 32.9065 4.865 32.9823 3.64709L33.1636 0.727295L33.345 3.64709C33.4208 4.865 33.7393 6.05515 34.2819 7.14662ZM40.4182 15.3831C40.4182 13.9714 40.0915 12.579 39.4637 11.3163C38.9212 10.2249 38.6026 9.03473 38.5268 7.8168L38.3455 4.89701L38.1641 7.8168C38.0883 9.03473 37.7698 10.2249 37.2272 11.3163C36.5994 12.579 36.2727 13.9714 36.2727 15.3831V48.6169C36.2727 50.0288 36.5994 51.421 37.2272 52.6838C37.7698 53.7752 38.0883 54.9654 38.1641 56.1832L38.3455 59.1031L38.5268 56.1832C38.6026 54.9654 38.9212 53.7752 39.4637 52.6838C40.0915 51.421 40.4182 50.0288 40.4182 48.6169V15.3831ZM44.6455 15.4861C45.2733 16.7487 45.6 18.141 45.6 19.5528V44.4472C45.6 45.8589 45.2733 47.2513 44.6455 48.514C44.103 49.6055 43.7844 50.7956 43.7086 52.0135L43.5273 54.9334L43.3459 52.0135C43.2701 50.7956 42.9516 49.6055 42.409 48.514C41.7814 47.2513 41.4545 45.8589 41.4545 44.4472V19.5528C41.4545 18.141 41.7814 16.7487 42.409 15.4861C42.9516 14.3945 43.2701 13.2044 43.3459 11.9865L43.5273 9.06668L43.7086 11.9865C43.7844 13.2044 44.103 14.3945 44.6455 15.4861ZM50.7818 27.8922C50.7818 26.4804 50.4551 25.0881 49.8273 23.8253C49.2848 22.7339 48.9662 21.5437 48.8905 20.3259L48.7091 17.4061L48.5277 20.3259C48.4519 21.5437 48.1334 22.7339 47.5909 23.8253C46.9632 25.0881 46.6364 26.4804 46.6364 27.8922V36.1078C46.6364 37.5195 46.9632 38.9119 47.5909 40.1746C48.1334 41.2661 48.4519 42.4562 48.5277 43.6741L48.7091 46.594L48.8905 43.6741C48.9662 42.4562 49.2848 41.2661 49.8273 40.1746C50.4551 38.9119 50.7818 37.5195 50.7818 36.1078V27.8922ZM55.9634 32C55.9635 32.0206 55.9636 32.0412 55.9636 32.0619V31.9381C55.9636 31.9588 55.9635 31.9794 55.9634 32ZM51.8184 32C51.8278 33.3906 52.1541 34.7608 52.7727 36.0049C53.3152 37.0964 53.6338 38.2865 53.7095 39.5044L53.8909 42.4243L54.0723 39.5044C54.1481 38.2865 54.4666 37.0964 55.0091 36.0049C55.6277 34.7608 55.954 33.3906 55.9634 32C55.954 30.6094 55.6277 29.2393 55.0091 27.9952C54.4666 26.9036 54.1481 25.7136 54.0723 24.4956L53.8909 21.5758L53.7095 24.4956C53.6338 25.7136 53.3152 26.9036 52.7727 27.9952C52.1541 29.2393 51.8278 30.6094 51.8184 32ZM51.8184 32C51.8183 31.9794 51.8182 31.9588 51.8182 31.9381V32.0619C51.8182 32.0412 51.8183 32.0206 51.8184 32Z" fill="white" fill-opacity="0.3"/>
</g>
<defs>
<clipPath id="clip0_828_6256">
<rect width="57" height="64" fill="white"/>
</clipPath>
</defs>
</svg>
