<svg width="10" height="10" viewBox="0 0 10 10" fill="none" xmlns="http://www.w3.org/2000/svg">
<path d="M8.34747 0.283315C8.72532 -0.094533 9.33864 -0.0944063 9.71656 0.283315C10.0945 0.661226 10.0945 1.27449 9.71656 1.65241L6.36903 4.99994L9.71656 8.34747C10.0945 8.72538 10.0945 9.33865 9.71656 9.71656C9.33865 10.0944 8.72536 10.0944 8.34747 9.71656L4.99994 6.36903L1.65241 9.71656C1.27449 10.0944 0.661199 10.0944 0.283315 9.71656C-0.0943793 9.33866 -0.0944516 8.72533 0.283315 8.34747L3.63085 4.99994L0.283315 1.65241C-0.0943918 1.27451 -0.0944558 0.661173 0.283315 0.283315C0.661167 -0.0945372 1.27448 -0.0944188 1.65241 0.283315L4.99994 3.63085L8.34747 0.283315Z" fill="white"/>
</svg>
