<svg width="136" height="28" viewBox="0 0 136 28" fill="none" xmlns="http://www.w3.org/2000/svg">
<path d="M44.2822 27.6315V0.368164H55.1876V5.63495H49.8278V10.9482H54.9707V16.0756H49.8278V22.3183H55.5438V27.6315H44.2822Z" fill="white"/>
<path d="M36.4184 27.8796C33.9296 27.8796 32.1327 27.26 31.0277 26.0208C29.9331 24.7815 29.3857 22.8091 29.3857 20.1034V17.439H34.7764V20.8469C34.7764 21.4769 34.8694 21.9726 35.0553 22.334C35.2515 22.6851 35.5871 22.8607 36.0622 22.8607C36.5579 22.8607 36.8987 22.7161 37.0845 22.427C37.2808 22.1378 37.3789 21.6628 37.3789 21.0018C37.3789 20.1654 37.2962 19.4683 37.131 18.9106C36.9658 18.3426 36.6766 17.8056 36.2635 17.2996C35.8608 16.7833 35.298 16.1843 34.5751 15.5027L32.1276 13.1791C30.2997 11.4545 29.3857 9.48205 29.3857 7.26174C29.3857 4.93816 29.9227 3.16708 30.9968 1.94849C32.0811 0.7299 33.6456 0.120605 35.6904 0.120605C38.1895 0.120605 39.9606 0.786698 41.0036 2.11888C42.057 3.45107 42.5837 5.47517 42.5837 8.19117H37.0381V6.31682C37.0381 5.94505 36.9296 5.65589 36.7128 5.44935C36.5062 5.24281 36.2222 5.13954 35.8608 5.13954C35.4271 5.13954 35.1069 5.26346 34.9004 5.51131C34.7042 5.74883 34.6061 6.05864 34.6061 6.44074C34.6061 6.82284 34.7093 7.23592 34.9159 7.67999C35.1224 8.12405 35.5303 8.63524 36.1396 9.21355L39.2842 12.2342C39.9141 12.8332 40.4925 13.4683 41.0191 14.1395C41.5458 14.8005 41.9692 15.575 42.2894 16.4631C42.6095 17.3409 42.7696 18.4149 42.7696 19.6851C42.7696 22.2463 42.2945 24.2549 41.3444 25.711C40.4047 27.1568 38.7627 27.8796 36.4184 27.8796Z" fill="white"/>
<path d="M14.1221 27.6315L16.7555 0.368164H26.0033L28.5902 27.6315H23.4319L23.0446 23.2322H19.7606L19.4198 27.6315H14.1221ZM20.1479 18.8794H22.6264L21.4336 5.01532H21.1858L20.1479 18.8794Z" fill="white"/>
<path d="M0 27.6315V0.368164H7.38898C9.37177 0.368164 10.8124 0.853534 11.7108 1.82427C12.6196 2.78469 13.074 4.37505 13.074 6.59536V7.78813C13.074 9.06868 12.8417 10.1065 12.3769 10.9017C11.9225 11.6969 11.2255 12.2184 10.2857 12.4663C11.5146 12.7761 12.3356 13.5041 12.7487 14.6504C13.1721 15.7864 13.3838 17.1754 13.3838 18.8174C13.3838 20.5833 13.2186 22.1272 12.8881 23.4491C12.5577 24.7709 11.9587 25.7985 11.0912 26.5317C10.2238 27.2649 8.98967 27.6315 7.38898 27.6315H0ZM5.32874 10.6384H6.44406C6.95009 10.6384 7.27539 10.4422 7.41997 10.0497C7.56454 9.65732 7.63683 9.18744 7.63683 8.64011V5.89828C7.63683 5.02049 7.24957 4.58159 6.47504 4.58159H5.32874V10.6384ZM5.87091 22.8294C7.28571 22.8294 7.99312 22.1582 7.99312 20.8157V17.4078C7.99312 16.6332 7.87435 16.0239 7.63683 15.5799C7.40964 15.1255 6.9759 14.8983 6.33563 14.8983H5.32874V22.7985C5.55594 22.8191 5.73666 22.8294 5.87091 22.8294Z" fill="white"/>
<path d="M118.158 27.5109V5.48336H114.921V0.247559H126.849V5.48336H123.611V27.5109H118.158Z" fill="#717171"/>
<path d="M103.468 27.5109V0.247559H114.373V5.56081H108.951V9.89816H114.094V15.1495H108.951V27.5109H103.468Z" fill="#717171"/>
<path d="M87.6416 27.5109L90.275 0.247559H99.5228L102.11 27.5109H96.9514L96.5641 23.1116H93.2802L92.9394 27.5109H87.6416ZM93.6674 18.7587H96.1459L94.9531 4.89472H94.7053L93.6674 18.7587Z" fill="#717171"/>
<path d="M73.5864 27.5109V0.247559H81.9513C83.3455 0.247559 84.3988 0.567696 85.1114 1.20797C85.8239 1.83792 86.299 2.72604 86.5365 3.87234C86.7844 5.00832 86.9083 6.34567 86.9083 7.88439C86.9083 9.37148 86.7172 10.5591 86.3351 11.4472C85.9634 12.3353 85.256 12.9498 84.2129 13.2906C85.0701 13.4661 85.669 13.8947 86.0098 14.5763C86.361 15.2476 86.5365 16.1202 86.5365 17.1942V27.5109H81.1613V16.8379C81.1613 16.0427 80.9961 15.5522 80.6656 15.3663C80.3455 15.1701 79.8239 15.072 79.1011 15.072V27.5109H73.5864ZM79.132 10.3474H80.4487C81.2026 10.3474 81.5795 9.52639 81.5795 7.88439C81.5795 6.82071 81.4969 6.12363 81.3317 5.79317C81.1665 5.4627 80.8566 5.29747 80.4023 5.29747H79.132V10.3474Z" fill="#717171"/>
<path d="M65.1959 27.759C63.2235 27.759 61.6331 27.1446 60.4248 25.9157C59.2269 24.6867 58.6279 22.9673 58.6279 20.7573V8.179C58.6279 5.53528 59.1494 3.51119 60.1925 2.10671C61.2458 0.702238 62.955 0 65.3198 0C66.6107 0 67.757 0.237522 68.7587 0.712565C69.7708 1.18761 70.566 1.90017 71.1443 2.85026C71.7226 3.79002 72.0117 4.97762 72.0117 6.41308V11.1222H66.5901V7.09466C66.5901 6.27883 66.4868 5.7315 66.2803 5.45267C66.0737 5.16351 65.7536 5.01893 65.3198 5.01893C64.8138 5.01893 64.473 5.20482 64.2975 5.57659C64.1219 5.93804 64.0341 6.42341 64.0341 7.0327V20.6799C64.0341 21.4337 64.1426 21.9656 64.3594 22.2754C64.5866 22.5852 64.9068 22.7401 65.3198 22.7401C65.7846 22.7401 66.1099 22.5491 66.2957 22.167C66.492 21.7849 66.5901 21.2892 66.5901 20.6799V15.7694H72.0737V20.9277C72.0737 23.3236 71.4696 25.0637 70.2613 26.148C69.0531 27.222 67.3646 27.759 65.1959 27.759Z" fill="#717171"/>
<path d="M130.322 19.4887L129.075 0.240723H135.45L134.203 19.4887H130.322ZM129.075 27.9998V22.6937H135.45V27.9998H129.075Z" fill="#717171"/>
</svg>
