<svg width="92" height="18" viewBox="0 0 92 18" fill="none" xmlns="http://www.w3.org/2000/svg">
<path d="M28.4688 17.7608V0.234375H35.4793V3.62016H32.0338V7.03583H35.3399V10.332H32.0338V14.3451H35.7084V17.7608H28.4688Z" fill="white"/>
<path d="M23.4116 17.9232C21.8117 17.9232 20.6565 17.5249 19.9462 16.7282C19.2425 15.9316 18.8906 14.6636 18.8906 12.9242V11.2114H22.3561V13.4022C22.3561 13.8072 22.4158 14.1258 22.5353 14.3582C22.6615 14.5839 22.8772 14.6968 23.1826 14.6968C23.5013 14.6968 23.7204 14.6038 23.8399 14.4179C23.966 14.232 24.0291 13.9267 24.0291 13.5018C24.0291 12.964 23.9759 12.5159 23.8697 12.1574C23.7635 11.7923 23.5776 11.4471 23.3121 11.1218C23.0532 10.7898 22.6913 10.4048 22.2266 9.96662L20.6532 8.47289C19.4782 7.36421 18.8906 6.0962 18.8906 4.66886C18.8906 3.17513 19.2358 2.03657 19.9263 1.25319C20.6234 0.469814 21.6291 0.078125 22.9436 0.078125C24.5502 0.078125 25.6888 0.506328 26.3593 1.36273C27.0364 2.21914 27.375 3.52034 27.375 5.26635H23.81V4.06141C23.81 3.82241 23.7403 3.63652 23.6009 3.50375C23.4681 3.37097 23.2855 3.30458 23.0532 3.30458C22.7743 3.30458 22.5685 3.38425 22.4357 3.54358C22.3096 3.69627 22.2465 3.89544 22.2465 4.14107C22.2465 4.38671 22.3129 4.65226 22.4457 4.93773C22.5785 5.2232 22.8407 5.55182 23.2324 5.92359L25.2539 7.86544C25.6589 8.25049 26.0307 8.65877 26.3692 9.0903C26.7078 9.51518 26.98 10.0131 27.1858 10.584C27.3916 11.1483 27.4945 11.8388 27.4945 12.6553C27.4945 14.3018 27.1891 15.593 26.5784 16.5291C25.9742 17.4585 24.9187 17.9232 23.4116 17.9232Z" fill="white"/>
<path d="M9.08008 17.7608L10.773 0.234375H16.718L18.381 17.7608H15.065L14.816 14.9327H12.7049L12.4858 17.7608H9.08008ZM12.9538 12.1344H14.5471L13.7803 3.22183H13.621L12.9538 12.1344Z" fill="white"/>
<path d="M0 17.7608V0.234375H4.75006C6.02471 0.234375 6.95082 0.546399 7.5284 1.17045C8.11261 1.78785 8.40472 2.81023 8.40472 4.23757V5.00435C8.40472 5.82756 8.25535 6.49476 7.9566 7.00595C7.6645 7.51714 7.21638 7.8524 6.61225 8.01173C7.40226 8.21089 7.93005 8.67893 8.1956 9.41584C8.46779 10.1461 8.60389 11.039 8.60389 12.0946C8.60389 13.2298 8.49766 14.2223 8.28522 15.0721C8.07278 15.9219 7.68773 16.5824 7.13007 17.0538C6.57241 17.5251 5.77908 17.7608 4.75006 17.7608H0ZM3.42562 6.83666H4.14261C4.46791 6.83666 4.67704 6.71052 4.76998 6.45825C4.86292 6.20598 4.90939 5.90391 4.90939 5.55205V3.78945C4.90939 3.22515 4.66044 2.94301 4.16253 2.94301H3.42562V6.83666ZM3.77416 14.6738C4.68367 14.6738 5.13843 14.2422 5.13843 13.3792V11.1884C5.13843 10.6905 5.06209 10.2988 4.90939 10.0133C4.76334 9.72122 4.48451 9.57517 4.0729 9.57517H3.42562V14.6538C3.57167 14.6671 3.68785 14.6738 3.77416 14.6738Z" fill="white"/>
<path d="M80.7746 17.6866V3.52603H78.6934V0.160156H86.3612V3.52603H84.2799V17.6866H80.7746Z" fill="#717171"/>
<path d="M71.3301 17.6866V0.160156H78.3407V3.57582H74.8553V6.36411H78.1614V9.73994H74.8553V17.6866H71.3301Z" fill="#717171"/>
<path d="M61.1562 17.6866L62.8491 0.160156H68.7942L70.4572 17.6866H67.1411L66.8922 14.8585H64.781L64.562 17.6866H61.1562ZM65.03 12.0602H66.6233L65.8565 3.14762H65.6972L65.03 12.0602Z" fill="#717171"/>
<path d="M52.123 17.6866V0.160156H57.5005C58.3967 0.160156 59.0739 0.365959 59.5319 0.777565C59.99 1.18253 60.2954 1.75347 60.4481 2.49037C60.6074 3.22064 60.6871 4.08037 60.6871 5.06955C60.6871 6.02554 60.5643 6.789 60.3186 7.35993C60.0796 7.93087 59.6249 8.32588 58.9544 8.54496C59.5054 8.65782 59.8904 8.93333 60.1095 9.37149C60.3352 9.80301 60.4481 10.364 60.4481 11.0544V17.6866H56.9926V10.8254C56.9926 10.3142 56.8864 9.99886 56.6739 9.87936C56.4681 9.75322 56.1329 9.69015 55.6682 9.69015V17.6866H52.123ZM55.6881 6.6529H56.5345C57.0192 6.6529 57.2615 6.12512 57.2615 5.06955C57.2615 4.38575 57.2084 3.93763 57.1021 3.72519C56.9959 3.51275 56.7968 3.40653 56.5047 3.40653H55.6881V6.6529Z" fill="#717171"/>
<path d="M46.7281 17.8451C45.4601 17.8451 44.4378 17.4501 43.661 16.6601C42.8909 15.8701 42.5059 14.7647 42.5059 13.344V5.25793C42.5059 3.5584 42.8411 2.25719 43.5116 1.35432C44.1888 0.451438 45.2875 0 46.8078 0C47.6377 0 48.3746 0.152692 49.0185 0.458077C49.6691 0.763462 50.1803 1.22154 50.5521 1.83231C50.9239 2.43644 51.1097 3.1999 51.1097 4.12269V7.14999H47.6244V4.56086C47.6244 4.03639 47.558 3.68453 47.4252 3.50529C47.2924 3.3194 47.0866 3.22646 46.8078 3.22646C46.4825 3.22646 46.2634 3.34596 46.1506 3.58495C46.0377 3.81731 45.9813 4.12933 45.9813 4.52102V13.2942C45.9813 13.7788 46.051 14.1207 46.1904 14.3199C46.3364 14.5191 46.5422 14.6186 46.8078 14.6186C47.1065 14.6186 47.3157 14.4958 47.4352 14.2502C47.5613 14.0045 47.6244 13.6859 47.6244 13.2942V10.1374H51.1496V13.4535C51.1496 14.9937 50.7612 16.1124 49.9845 16.8094C49.2077 17.4999 48.1223 17.8451 46.7281 17.8451Z" fill="#717171"/>
<path d="M88.5942 12.5299L87.793 0.15625H91.8908L91.0896 12.5299H88.5942ZM87.793 18.0013V14.5903H91.8908V18.0013H87.793Z" fill="#717171"/>
</svg>
