<svg width="10" height="10" viewBox="0 0 10 10" fill="none" xmlns="http://www.w3.org/2000/svg">
<path d="M8.34737 0.283433C8.72521 -0.0944098 9.33852 -0.0942831 9.71644 0.283433C10.0944 0.66134 10.0944 1.2746 9.71644 1.65251L6.36895 5L9.71644 8.34749C10.0944 8.7254 10.0944 9.33866 9.71644 9.71657C9.33853 10.0944 8.72525 10.0944 8.34737 9.71657L4.99988 6.36907L1.65239 9.71657C1.27447 10.0944 0.661191 10.0944 0.283311 9.71657C-0.0943781 9.33867 -0.0944505 8.72534 0.283311 8.34749L3.6308 5L0.283311 1.65251C-0.0943906 1.27461 -0.0944547 0.661287 0.283311 0.283433C0.661159 -0.0944139 1.27446 -0.0942956 1.65239 0.283433L4.99988 3.63093L8.34737 0.283433Z" fill="white"/>
</svg>
