<svg width="16" height="16" viewBox="0 0 16 16" fill="none" xmlns="http://www.w3.org/2000/svg">
<path d="M11.3335 9.6667V7.663C11.3335 7.5433 11.3335 7.4835 11.3153 7.4307C11.2992 7.3839 11.2729 7.3414 11.2383 7.3061C11.1992 7.2662 11.1457 7.2394 11.0387 7.1859L8.0002 5.6667M2.6668 6.3333V10.8711C2.6668 11.119 2.6668 11.243 2.7055 11.3515C2.7397 11.4475 2.7954 11.5343 2.8684 11.6054C2.951 11.6858 3.0637 11.7374 3.2891 11.8407L7.5557 13.7963C7.7192 13.8712 7.801 13.9087 7.8861 13.9235C7.9616 13.9366 8.0387 13.9366 8.1142 13.9235C8.1994 13.9087 8.2811 13.8712 8.4446 13.7963L12.7113 11.8407C12.9367 11.7374 13.0494 11.6858 13.1319 11.6054C13.2049 11.5343 13.2606 11.4475 13.2948 11.3515C13.3335 11.243 13.3335 11.119 13.3335 10.8711V6.3333M1.3335 5.6667L7.7616 2.4526C7.8491 2.4089 7.8928 2.387 7.9387 2.3784C7.9793 2.3708 8.021 2.3708 8.0616 2.3784C8.1075 2.387 8.1512 2.4089 8.2387 2.4526L14.6668 5.6667L8.2387 8.8807C8.1512 8.9245 8.1075 8.9463 8.0616 8.9549C8.021 8.9626 7.9793 8.9626 7.9387 8.9549C7.8928 8.9463 7.8491 8.9245 7.7616 8.8807L1.3335 5.6667Z" stroke="white" stroke-width="1.33333" stroke-linecap="round" stroke-linejoin="round"/>
</svg>
