<svg width="16" height="16" viewBox="0 0 16 16" fill="none" xmlns="http://www.w3.org/2000/svg">
<path d="M11.6667 7.3333H8.33333M11.6667 10H8.33333M11.6667 4.6667H8.33333M6 2L6 14M5.2 2H10.8C11.9201 2 12.4802 2 12.908 2.218C13.2843 2.4097 13.5903 2.7157 13.782 3.092C14 3.5198 14 4.0799 14 5.2V10.8C14 11.9201 14 12.4802 13.782 12.908C13.5903 13.2843 13.2843 13.5903 12.908 13.782C12.4802 14 11.9201 14 10.8 14H5.2C4.0799 14 3.5198 14 3.092 13.782C2.7157 13.5903 2.4097 13.2843 2.218 12.908C2 12.4802 2 11.9201 2 10.8V5.2C2 4.0799 2 3.5198 2.218 3.092C2.4097 2.7157 2.7157 2.4097 3.092 2.218C3.5198 2 4.0799 2 5.2 2Z" stroke="white" stroke-width="1.33333" stroke-linecap="round" stroke-linejoin="round"/>
</svg>
