<svg width="36" height="36" viewBox="0 0 36 36" fill="none" xmlns="http://www.w3.org/2000/svg">
<path d="M18 0.5C20.8025 0.5 22.8797 0.500531 24.5322 0.613281C26.1798 0.725714 27.3691 0.947899 28.4004 1.375C31.2182 2.54218 33.4578 4.78179 34.625 7.59961C35.0521 8.63095 35.2743 9.82025 35.3867 11.4678C35.4995 13.1203 35.5 15.1975 35.5 18C35.5 20.8025 35.4995 22.8797 35.3867 24.5322C35.2743 26.1798 35.0521 27.3691 34.625 28.4004C33.4578 31.2182 31.2182 33.4578 28.4004 34.625C27.3691 35.0521 26.1798 35.2743 24.5322 35.3867C22.8797 35.4995 20.8025 35.5 18 35.5C15.1975 35.5 13.1203 35.4995 11.4678 35.3867C9.82025 35.2743 8.63095 35.0521 7.59961 34.625C4.78179 33.4578 2.54218 31.2182 1.375 28.4004C0.947899 27.3691 0.725714 26.1798 0.613281 24.5322C0.500531 22.8797 0.5 20.8025 0.5 18C0.5 15.1975 0.500531 13.1203 0.613281 11.4678C0.725714 9.82025 0.947899 8.63095 1.375 7.59961C2.54218 4.78179 4.78179 2.54218 7.59961 1.375C8.63095 0.947899 9.82025 0.725714 11.4678 0.613281C13.1203 0.500531 15.1975 0.5 18 0.5Z" fill="#050505"/>
<path d="M18 0.5C20.8025 0.5 22.8797 0.500531 24.5322 0.613281C26.1798 0.725714 27.3691 0.947899 28.4004 1.375C31.2182 2.54218 33.4578 4.78179 34.625 7.59961C35.0521 8.63095 35.2743 9.82025 35.3867 11.4678C35.4995 13.1203 35.5 15.1975 35.5 18C35.5 20.8025 35.4995 22.8797 35.3867 24.5322C35.2743 26.1798 35.0521 27.3691 34.625 28.4004C33.4578 31.2182 31.2182 33.4578 28.4004 34.625C27.3691 35.0521 26.1798 35.2743 24.5322 35.3867C22.8797 35.4995 20.8025 35.5 18 35.5C15.1975 35.5 13.1203 35.4995 11.4678 35.3867C9.82025 35.2743 8.63095 35.0521 7.59961 34.625C4.78179 33.4578 2.54218 31.2182 1.375 28.4004C0.947899 27.3691 0.725714 26.1798 0.613281 24.5322C0.500531 22.8797 0.5 20.8025 0.5 18C0.5 15.1975 0.500531 13.1203 0.613281 11.4678C0.725714 9.82025 0.947899 8.63095 1.375 7.59961C2.54218 4.78179 4.78179 2.54218 7.59961 1.375C8.63095 0.947899 9.82025 0.725714 11.4678 0.613281C13.1203 0.500531 15.1975 0.5 18 0.5Z" stroke="#303030"/>
<path d="M23.8609 18.4042C24.0237 18.2647 24.105 18.1949 24.1348 18.1119C24.161 18.0391 24.161 17.9594 24.1348 17.8865C24.105 17.8035 24.0237 17.7338 23.8609 17.5943L18.2138 12.7539C17.9336 12.5137 17.7935 12.3937 17.6749 12.3907C17.5719 12.3882 17.4734 12.4335 17.4083 12.5134C17.3333 12.6053 17.3333 12.7898 17.3333 13.1588V16.0223C15.9102 16.2713 14.6077 16.9924 13.6398 18.0751C12.5846 19.2556 12.0008 20.7832 12 22.3665V22.7745C12.6996 21.9318 13.573 21.2502 14.5605 20.7765C15.4311 20.3588 16.3723 20.1114 17.3333 20.0462V22.8396C17.3333 23.2086 17.3333 23.3931 17.4083 23.4851C17.4734 23.565 17.5719 23.6103 17.6749 23.6077C17.7935 23.6048 17.9336 23.4847 18.2138 23.2446L23.8609 18.4042Z" stroke="white" stroke-width="1.33333" stroke-linecap="round" stroke-linejoin="round"/>
</svg>
