<svg width="36" height="36" viewBox="0 0 36 36" fill="none" xmlns="http://www.w3.org/2000/svg">
<path d="M18 0.5C20.8025 0.5 22.8797 0.500531 24.5322 0.613281C26.1798 0.725714 27.3691 0.947899 28.4004 1.375C31.2182 2.54218 33.4578 4.78179 34.625 7.59961C35.0521 8.63095 35.2743 9.82025 35.3867 11.4678C35.4995 13.1203 35.5 15.1975 35.5 18C35.5 20.8025 35.4995 22.8797 35.3867 24.5322C35.2743 26.1798 35.0521 27.3691 34.625 28.4004C33.4578 31.2182 31.2182 33.4578 28.4004 34.625C27.3691 35.0521 26.1798 35.2743 24.5322 35.3867C22.8797 35.4995 20.8025 35.5 18 35.5C15.1975 35.5 13.1203 35.4995 11.4678 35.3867C9.82025 35.2743 8.63095 35.0521 7.59961 34.625C4.78179 33.4578 2.54218 31.2182 1.375 28.4004C0.947899 27.3691 0.725714 26.1798 0.613281 24.5322C0.500531 22.8797 0.5 20.8025 0.5 18C0.5 15.1975 0.500531 13.1203 0.613281 11.4678C0.725714 9.82025 0.947899 8.63095 1.375 7.59961C2.54218 4.78179 4.78179 2.54218 7.59961 1.375C8.63095 0.947899 9.82025 0.725714 11.4678 0.613281C13.1203 0.500531 15.1975 0.5 18 0.5Z" fill="#050505"/>
<path d="M18 0.5C20.8025 0.5 22.8797 0.500531 24.5322 0.613281C26.1798 0.725714 27.3691 0.947899 28.4004 1.375C31.2182 2.54218 33.4578 4.78179 34.625 7.59961C35.0521 8.63095 35.2743 9.82025 35.3867 11.4678C35.4995 13.1203 35.5 15.1975 35.5 18C35.5 20.8025 35.4995 22.8797 35.3867 24.5322C35.2743 26.1798 35.0521 27.3691 34.625 28.4004C33.4578 31.2182 31.2182 33.4578 28.4004 34.625C27.3691 35.0521 26.1798 35.2743 24.5322 35.3867C22.8797 35.4995 20.8025 35.5 18 35.5C15.1975 35.5 13.1203 35.4995 11.4678 35.3867C9.82025 35.2743 8.63095 35.0521 7.59961 34.625C4.78179 33.4578 2.54218 31.2182 1.375 28.4004C0.947899 27.3691 0.725714 26.1798 0.613281 24.5322C0.500531 22.8797 0.5 20.8025 0.5 18C0.5 15.1975 0.500531 13.1203 0.613281 11.4678C0.725714 9.82025 0.947899 8.63095 1.375 7.59961C2.54218 4.78179 4.78179 2.54218 7.59961 1.375C8.63095 0.947899 9.82025 0.725714 11.4678 0.613281C13.1203 0.500531 15.1975 0.5 18 0.5Z" stroke="#303030"/>
<path fill-rule="evenodd" clip-rule="evenodd" d="M17.9921 10.0227C17.9854 10.0398 17.9733 10.1197 17.9652 10.2005C17.9308 10.543 17.8076 11.4475 17.7077 12.0911C17.3113 14.6443 16.7209 15.8899 15.5464 16.6511C15.4966 16.6834 15.4514 16.7098 15.4459 16.7098C15.4405 16.7098 15.4155 16.7245 15.3904 16.7424C15.3418 16.7771 15.0522 16.9266 14.9237 16.9834C14.3356 17.2432 13.5841 17.4492 12.5263 17.6407C12.4223 17.6595 12.2831 17.6834 12.217 17.6938C12.1508 17.7041 12.0541 17.7197 12.0021 17.7283C11.9502 17.737 11.8458 17.7526 11.7701 17.7631C11.6945 17.7736 11.5901 17.7892 11.5381 17.7978C11.4861 17.8064 11.2348 17.841 10.9796 17.8748C10.7244 17.9086 10.4638 17.9439 10.4006 17.9532C10.3373 17.9626 10.2522 17.9709 10.2115 17.9716C10.1708 17.9723 10.1066 17.9828 10.0687 17.9948L10 18.0167L10.0602 18.0272C10.0932 18.0329 10.1976 18.0464 10.2922 18.0573C10.5479 18.0865 11.0921 18.1573 11.2975 18.1881C11.5016 18.2187 11.6447 18.239 11.7701 18.2551C11.8174 18.2612 11.8909 18.2728 11.9334 18.2809C11.9759 18.2891 12.0726 18.305 12.1482 18.3162C12.3236 18.3423 12.9291 18.4486 13.0419 18.473C13.0892 18.4832 13.1588 18.4984 13.1966 18.5066C13.7814 18.6344 14.4694 18.838 14.7948 18.9798C14.8626 19.0093 14.9967 19.0697 15.1062 19.1201C15.2395 19.1814 15.4724 19.3199 15.6678 19.454C16.6622 20.1364 17.2207 21.2561 17.595 23.318C17.6273 23.4963 17.6661 23.7199 17.6811 23.8149C17.6961 23.9099 17.7156 24.0303 17.7244 24.0825C17.7332 24.1347 17.749 24.2396 17.7595 24.3156C17.77 24.3916 17.786 24.5004 17.7949 24.5573C17.8039 24.6143 17.827 24.7853 17.8464 24.9372C17.8658 25.0891 17.897 25.3339 17.9158 25.4811C17.9346 25.6283 17.9559 25.8009 17.9631 25.8648C17.9758 25.9781 17.9894 26.0154 18.0103 25.9944C18.016 25.9887 18.0271 25.9078 18.0349 25.8146C18.09 25.1574 18.3658 23.3599 18.498 22.7962C18.72 21.8496 18.8486 21.4515 19.1021 20.9257C19.308 20.4985 19.5362 20.1709 19.8377 19.8694C20.4413 19.2659 21.1992 18.896 22.4683 18.5853C22.8306 18.4966 23.399 18.3858 23.8432 18.3173C23.9141 18.3064 24.0146 18.2901 24.0666 18.2811C24.1186 18.2721 24.2501 18.2522 24.3588 18.237C24.4675 18.2218 24.6067 18.2018 24.6681 18.1927C24.8762 18.1618 25.5349 18.0766 25.725 18.0559C25.829 18.0446 25.9334 18.0297 25.957 18.0227L26 18.01L25.9089 17.9901C25.8588 17.9792 25.7899 17.9703 25.7557 17.9703C25.7215 17.9703 25.6464 17.9631 25.5889 17.9542C25.5315 17.9454 25.4187 17.9298 25.3383 17.9197C24.4882 17.8122 23.4921 17.6556 22.9495 17.5441C22.8314 17.5198 22.7154 17.496 22.6917 17.4912C22.6103 17.4747 22.0472 17.3301 22.0043 17.3146C21.9807 17.3061 21.8801 17.2746 21.7809 17.2447C20.8887 16.9759 20.139 16.5302 19.6957 16.0054C19.0291 15.216 18.6467 14.184 18.3444 12.3587C18.3153 12.1831 18.2839 11.9966 18.2746 11.9444C18.2334 11.7117 18.0726 10.5017 18.0354 10.1436C18.0203 9.99917 18.0113 9.97388 17.9921 10.0227Z" fill="white"/>
</svg>
