<svg width="65" height="18" viewBox="0 0 65 18" fill="none" xmlns="http://www.w3.org/2000/svg">
<path d="M50.736 16.8395C49.4027 16.0741 48.3904 14.9877 47.6743 13.6049C46.9336 12.2222 46.5879 10.6667 46.5879 8.88889C46.5879 7.23457 46.8595 5.7284 47.4521 4.37037C48.02 3.03704 48.8595 1.97531 49.9706 1.18519C51.0817 0.395062 52.4151 0 53.9459 0C55.3039 0 56.4891 0.320988 57.4768 0.962964C58.4644 1.60494 59.2299 2.46914 59.7731 3.60494C60.2916 4.74074 60.5632 6.04938 60.5632 7.53087C60.5632 7.75309 60.5385 8.09877 60.5138 8.54321L60.3904 9.82716H49.4521C49.6496 11.5062 50.2422 12.8148 51.2792 13.7531C52.2916 14.6914 53.6496 15.1605 55.3286 15.1605C57.2052 15.1605 58.662 14.6173 59.699 13.5309C60.7113 12.4444 61.2546 10.9136 61.3039 8.93827L64.1188 9.01235C64.0694 10.8148 63.6743 12.3951 62.9583 13.7284C62.2175 15.0864 61.2052 16.1235 59.9212 16.8642C58.6126 17.6049 57.0817 17.9753 55.3286 17.9753C53.6002 17.9753 52.0694 17.6049 50.736 16.8395ZM56.662 3.95062C56.02 3.20988 55.1064 2.81482 53.9459 2.81482C52.736 2.81482 51.7731 3.18519 51.057 3.92593C50.3163 4.66667 49.8225 5.67901 49.5755 7.01235H57.7237C57.6496 5.7284 57.3039 4.71605 56.662 3.95062Z" fill="#E8E8E8"/>
<path d="M34.7009 17.2346C33.5898 16.716 32.7009 15.9753 32.0342 15.037C31.3676 14.0988 30.9972 13.0123 30.8984 11.7531L33.7133 11.5062C33.812 12.6667 34.2812 13.5802 35.1207 14.2222C35.9602 14.8642 37.0713 15.1852 38.4787 15.1852C39.7379 15.1852 40.7009 14.9877 41.3923 14.5432C42.0589 14.0988 42.4046 13.4815 42.4046 12.6914C42.4046 12.0988 42.1577 11.6049 41.7133 11.2099C41.2688 10.8148 40.6021 10.5185 39.7626 10.3704L36.9972 9.87654C33.5404 9.28395 31.812 7.62963 31.812 4.8642C31.812 3.90123 32.0589 3.06173 32.5774 2.32099C33.096 1.58025 33.812 1.01235 34.7503 0.617285C35.6886 0.222222 36.7503 0 37.9849 0C39.9108 0 41.4663 0.54321 42.7009 1.58025C43.9355 2.64197 44.6268 4.07407 44.7997 5.87654L41.9849 6.12346C41.8861 5.06173 41.491 4.22222 40.7997 3.60494C40.1083 3.01235 39.17 2.69136 37.9849 2.69136C36.9231 2.69136 36.1083 2.91358 35.5157 3.30864C34.9231 3.7037 34.6268 4.22222 34.6268 4.8642C34.6268 5.50617 34.8244 5.97531 35.2441 6.32099C35.6639 6.66667 36.4046 6.91358 37.491 7.11111L40.2565 7.60494C41.7626 7.90123 42.9725 8.49383 43.8614 9.40741C44.7503 10.321 45.2194 11.4074 45.2194 12.6914C45.2194 13.7778 44.9231 14.7161 44.3799 15.5062C43.812 16.2963 43.0219 16.9136 42.0095 17.358C40.9972 17.8025 39.812 18 38.4787 18C37.0713 18 35.812 17.7531 34.7009 17.2346Z" fill="#E8E8E8"/>
<path d="M24.668 0.345703L31.0383 17.6297H28.0754L25.6062 11.0124H19.9519L17.6556 17.6297H14.668L20.7174 0.345703H24.668ZM22.6927 3.16052L20.9396 8.19755H24.5692L22.6927 3.16052Z" fill="#E8E8E8"/>
<path d="M7.90123 0.345703C8.93827 0.345703 9.87654 0.567925 10.716 0.962988C11.5556 1.35805 12.1975 1.92595 12.6667 2.642C13.1358 3.35805 13.3827 4.14817 13.3827 5.03706C13.3827 5.67904 13.2593 6.29632 13.037 6.83953C12.8148 7.40743 12.5185 7.90126 12.1235 8.29632C12.6667 8.79015 13.0617 9.35805 13.358 10.0247C13.6543 10.7161 13.8025 11.4568 13.8025 12.2716C13.8025 13.358 13.5556 14.2963 13.0617 15.1111C12.5679 15.9259 11.8765 16.5432 10.9877 16.9877C10.0988 17.4321 9.06173 17.6297 7.87654 17.6297H0V0.345703H7.90123ZM9.97531 6.44447C10.3704 6.12348 10.5679 5.65435 10.5679 5.03706C10.5679 4.49385 10.321 4.02472 9.82716 3.67904C9.33333 3.33336 8.69136 3.16052 7.90123 3.16052H2.81481V6.9383H8.2963C9.03704 6.9383 9.58025 6.79015 9.97531 6.44447ZM10.1975 14.1729C10.716 13.7531 10.9877 13.1111 10.9877 12.2716C10.9877 11.5062 10.7407 10.8889 10.2716 10.4445C9.77778 10 9.1358 9.75311 8.2963 9.75311H2.81481V14.8148H7.87654C8.91358 14.8148 9.67901 14.6173 10.1975 14.1729Z" fill="#E8E8E8"/>
</svg>
