<svg width="16" height="16" viewBox="0 0 16 16" fill="none" xmlns="http://www.w3.org/2000/svg">
<path d="M6.0892 13.8495V11.8111C6.0892 11.2907 6.51413 10.8689 7.03831 10.8689H8.95442C9.20614 10.8689 9.44755 10.9681 9.62554 11.1448C9.80353 11.3215 9.90353 11.5612 9.90353 11.8111V13.8495C9.90194 14.0659 9.98739 14.2739 10.1409 14.4274C10.2945 14.581 10.5034 14.6673 10.7213 14.6673H12.0286C12.6391 14.6689 13.2252 14.4292 13.6575 14.0012C14.0897 13.5732 14.3327 12.992 14.3327 12.3859V6.57856C14.3327 6.08896 14.1141 5.62455 13.7358 5.31043L9.2887 1.78456C8.51512 1.16636 7.40676 1.18632 6.65628 1.83197L2.31069 5.31043C1.91451 5.61529 1.67772 6.08108 1.66602 6.57856V12.3799C1.66602 13.6432 2.6976 14.6673 3.97013 14.6673H5.24754C5.70017 14.6673 6.06801 14.3048 6.07129 13.8555L6.0892 13.8495Z" fill="#EFD564"/>
</svg>
