<svg width="16" height="16" viewBox="0 0 16 16" fill="none" xmlns="http://www.w3.org/2000/svg">
<path d="M8 2.66732V10.134C8 11.2541 8 11.8141 8.21799 12.242C8.40973 12.6183 8.71569 12.9243 9.09202 13.116C9.51984 13.334 10.0799 13.334 11.2 13.334H11.3333M11.3333 13.334C11.3333 14.0704 11.9303 14.6673 12.6667 14.6673C13.403 14.6673 14 14.0704 14 13.334C14 12.5976 13.403 12.0007 12.6667 12.0007C11.9303 12.0007 11.3333 12.5976 11.3333 13.334ZM4.66667 2.66732L11.3333 2.66732M4.66667 2.66732C4.66667 3.4037 4.06971 4.00065 3.33333 4.00065C2.59695 4.00065 2 3.4037 2 2.66732C2 1.93094 2.59695 1.33398 3.33333 1.33398C4.06971 1.33398 4.66667 1.93094 4.66667 2.66732ZM11.3333 2.66732C11.3333 3.4037 11.9303 4.00065 12.6667 4.00065C13.403 4.00065 14 3.4037 14 2.66732C14 1.93094 13.403 1.33398 12.6667 1.33398C11.9303 1.33398 11.3333 1.93094 11.3333 2.66732ZM8 8.00065H11.3333M11.3333 8.00065C11.3333 8.73703 11.9303 9.33398 12.6667 9.33398C13.403 9.33398 14 8.73703 14 8.00065C14 7.26427 13.403 6.66732 12.6667 6.66732C11.9303 6.66732 11.3333 7.26427 11.3333 8.00065Z" stroke="#959595" stroke-width="1.33333" stroke-linecap="round" stroke-linejoin="round"/>
</svg>
