<svg width="16" height="16" viewBox="0 0 16 16" fill="none" xmlns="http://www.w3.org/2000/svg">
<g clip-path="url(#clip0_1356_4269)">
<path d="M6.00063 7.48225L8.51915 10.0008M5.31722 13.984C4.40599 14.8952 2.66732 14.6674 1.33398 14.6674C2.01738 13.3341 1.10616 11.5954 2.01738 10.6842C2.92861 9.77296 4.40599 9.77296 5.31722 10.6842C6.22844 11.5954 6.22844 13.0728 5.31722 13.984ZM7.94839 10.6172L14.0398 4.03846C14.5763 3.45902 14.559 2.55916 14.0006 2.00077C13.4422 1.44237 12.5424 1.42507 11.9629 1.96159L5.38421 8.05299C5.04425 8.36777 4.87427 8.52516 4.77514 8.69301C4.53741 9.09552 4.52785 9.59313 4.74992 10.0045C4.84254 10.176 5.00634 10.3398 5.33395 10.6674C5.66156 10.995 5.82536 11.1588 5.9969 11.2515C6.40825 11.4735 6.90586 11.464 7.30837 11.2262C7.47622 11.1271 7.63361 10.9571 7.94839 10.6172Z" stroke="#959595" stroke-width="1.33333" stroke-linecap="round" stroke-linejoin="round"/>
</g>
<defs>
<clipPath id="clip0_1356_4269">
<rect width="16" height="16" fill="white"/>
</clipPath>
</defs>
</svg>
