<svg width="16" height="16" viewBox="0 0 16 16" fill="none" xmlns="http://www.w3.org/2000/svg">
<g clip-path="url(#clip0_1356_4272)">
<path d="M9.33398 14.6673H4.53398M4.53398 14.6673C3.41388 14.6673 2.85383 14.6673 2.426 14.4493C2.04968 14.2576 1.74372 13.9516 1.55197 13.5753C1.33398 13.1475 1.33398 12.5874 1.33398 11.4673M4.53398 14.6673H4.80065C5.92076 14.6673 6.48081 14.6673 6.90863 14.4493C7.28496 14.2576 7.59092 13.9516 7.78266 13.5753C8.00065 13.1475 8.00065 12.5874 8.00065 11.4673V11.2007C8.00065 10.0805 8.00065 9.52049 7.78266 9.09267C7.59092 8.71635 7.28496 8.41039 6.90863 8.21864C6.48081 8.00065 5.92076 8.00065 4.80065 8.00065H4.53398C3.41388 8.00065 2.85383 8.00065 2.426 8.21864C2.04968 8.41039 1.74372 8.71635 1.55197 9.09267C1.33398 9.52049 1.33398 10.0805 1.33398 11.2007V11.4673M1.33398 11.4673V6.66732M6.66732 1.33398H9.33398M14.6673 6.66732V9.33398M12.0007 14.6673C12.6206 14.6673 12.9306 14.6673 13.185 14.5992C13.8751 14.4142 14.4142 13.8751 14.5992 13.185C14.6673 12.9306 14.6673 12.6206 14.6673 12.0007M14.6673 4.00065C14.6673 3.38067 14.6673 3.07068 14.5992 2.81635C14.4142 2.12616 13.8751 1.58707 13.185 1.40213C12.9306 1.33398 12.6206 1.33398 12.0007 1.33398M4.00065 1.33398C3.38067 1.33398 3.07068 1.33398 2.81635 1.40213C2.12616 1.58707 1.58707 2.12616 1.40213 2.81635C1.33398 3.07068 1.33398 3.38067 1.33398 4.00065" stroke="#959595" stroke-width="1.33333" stroke-linecap="round" stroke-linejoin="round"/>
</g>
<defs>
<clipPath id="clip0_1356_4272">
<rect width="16" height="16" fill="white"/>
</clipPath>
</defs>
</svg>
