<svg width="16" height="16" viewBox="0 0 16 16" fill="none" xmlns="http://www.w3.org/2000/svg">
<g clip-path="url(#clip0_1326_7379)">
<path d="M1.33398 8.00065H14.6673M1.33398 4.66732H4.66732M11.334 4.66732H14.6673M1.33398 11.334H4.66732M11.334 11.334H14.6673M4.66732 14.6673V1.33398M11.334 14.6673V1.33398M4.53398 14.6673H11.4673C12.5874 14.6673 13.1475 14.6673 13.5753 14.4493C13.9516 14.2576 14.2576 13.9516 14.4493 13.5753C14.6673 13.1475 14.6673 12.5874 14.6673 11.4673V4.53398C14.6673 3.41388 14.6673 2.85383 14.4493 2.426C14.2576 2.04968 13.9516 1.74372 13.5753 1.55197C13.1475 1.33398 12.5874 1.33398 11.4673 1.33398H4.53398C3.41388 1.33398 2.85383 1.33398 2.426 1.55197C2.04968 1.74372 1.74372 2.04968 1.55197 2.426C1.33398 2.85383 1.33398 3.41388 1.33398 4.53398V11.4673C1.33398 12.5874 1.33398 13.1475 1.55197 13.5753C1.74372 13.9516 2.04968 14.2576 2.426 14.4493C2.85383 14.6673 3.41388 14.6673 4.53398 14.6673Z" stroke="#959595" stroke-width="1.33333" stroke-linecap="round" stroke-linejoin="round"/>
</g>
<defs>
<clipPath id="clip0_1326_7379">
<rect width="16" height="16" fill="white"/>
</clipPath>
</defs>
</svg>
