<svg width="16" height="16" viewBox="0 0 16 16" fill="none" xmlns="http://www.w3.org/2000/svg">
<path d="M2.33398 10.333L3.60742 9.06055C4.50426 8.16371 4.95275 7.71505 5.43848 7.67383C5.6831 7.65318 5.92898 7.70053 6.14844 7.81055C6.58422 8.0291 6.83438 8.61161 7.33398 9.77734L7.37012 9.86133C7.58735 10.3682 7.69609 10.6217 7.875 10.7324C8.01406 10.8184 8.17976 10.8505 8.34082 10.8223C8.54814 10.7859 8.74356 10.5904 9.13379 10.2002L9.20898 10.125C9.6898 9.64418 9.93051 9.40406 10.2031 9.30273C10.5028 9.19141 10.8322 9.19137 11.1318 9.30273C11.4045 9.40407 11.6451 9.64414 12.126 10.125L12.627 10.626C13.0797 11.0787 13.6937 11.333 14.334 11.333V2.79297C14.6671 3.59404 14.667 4.77448 14.667 6.66699V9.33301C14.667 11.847 14.6676 13.1047 13.8867 13.8857C13.1057 14.6668 11.8481 14.667 9.33398 14.667H6.66699C4.15324 14.667 2.89625 14.6666 2.11523 13.8857C1.33419 13.1047 1.33398 11.8472 1.33398 9.33301V6.66699C1.33398 4.15284 1.33419 2.89531 2.11523 2.11426C2.18386 2.04564 2.25748 1.98482 2.33398 1.92773V10.333Z" fill="#959595"/>
<path d="M6.66699 2.00098H9.33398C10.6098 2.00098 11.4995 2.00254 12.1709 2.09277C12.8231 2.18047 13.169 2.3409 13.415 2.58691C13.6609 2.8329 13.8215 3.17812 13.9092 3.83008C13.9994 4.50144 14.001 5.39125 14.001 6.66699V9.33398C14.001 10.6097 13.9994 11.4995 13.9092 12.1709C13.8215 12.8231 13.6611 13.169 13.415 13.415C13.169 13.6611 12.8231 13.8215 12.1709 13.9092C11.4995 13.9994 10.6097 14.001 9.33398 14.001H6.66699C5.39125 14.001 4.50144 13.9994 3.83008 13.9092C3.17812 13.8215 2.8329 13.6609 2.58691 13.415C2.3409 13.169 2.18047 12.8231 2.09277 12.1709C2.00254 11.4995 2.00098 10.6098 2.00098 9.33398V6.66699C2.00098 5.39124 2.00251 4.50144 2.09277 3.83008C2.18047 3.17788 2.34091 2.83292 2.58691 2.58691C2.83292 2.34091 3.17788 2.18047 3.83008 2.09277C4.50144 2.00251 5.39124 2.00098 6.66699 2.00098Z" stroke="#959595" stroke-width="1.33333"/>
<circle cx="9.99935" cy="5.99935" r="1.33333" fill="#959595"/>
</svg>
