<svg width="16" height="16" viewBox="0 0 16 16" fill="none" xmlns="http://www.w3.org/2000/svg">
<path d="M11.4096 10.2381C11.2291 10.4422 11.0397 10.6437 10.8417 10.8417C7.97785 13.7055 4.38992 14.7608 2.82782 13.1987C1.75688 12.1278 1.91615 10.1047 3.04499 8.01551M4.59246 5.81619C4.78027 5.60265 4.97783 5.39185 5.18484 5.18484C8.04869 2.321 11.6366 1.26572 13.1987 2.82782C14.2704 3.89949 14.1102 5.92465 12.9792 8.01535M10.8417 5.18484C13.7055 8.04869 14.7608 11.6366 13.1987 13.1987C11.6366 14.7608 8.04869 13.7055 5.18484 10.8417C2.321 7.97785 1.26572 4.38992 2.82782 2.82782C4.38992 1.26572 7.97785 2.321 10.8417 5.18484ZM8.66606 7.99934C8.66606 8.36753 8.36758 8.66601 7.99939 8.66601C7.6312 8.66601 7.33272 8.36753 7.33272 7.99934C7.33272 7.63115 7.6312 7.33268 7.99939 7.33268C8.36758 7.33268 8.66606 7.63115 8.66606 7.99934Z" stroke="#959595" stroke-width="1.33333" stroke-linecap="round" stroke-linejoin="round"/>
</svg>
