<svg width="16" height="16" viewBox="0 0 16 16" fill="none" xmlns="http://www.w3.org/2000/svg">
<g clip-path="url(#clip0_1326_7556)">
<path d="M7.33398 3.00065H12.2007C12.9474 3.00065 13.3208 3.00065 13.606 3.14598C13.8569 3.27381 14.0608 3.47778 14.1887 3.72866C14.334 4.01388 14.334 4.38725 14.334 5.13398V6.00065C14.334 6.62191 14.334 6.93253 14.2325 7.17756C14.0972 7.50427 13.8376 7.76383 13.5109 7.89916C13.2659 8.00065 12.9552 8.00065 12.334 8.00065M8.66732 13.0007H3.80065C3.05391 13.0007 2.68055 13.0007 2.39533 12.8553C2.14445 12.7275 1.94047 12.5235 1.81264 12.2726C1.66732 11.9874 1.66732 11.6141 1.66732 10.8673V10.0007C1.66732 9.3794 1.66732 9.06877 1.76881 8.82374C1.90414 8.49704 2.1637 8.23747 2.49041 8.10215C2.73543 8.00065 3.04606 8.00065 3.66732 8.00065M6.86732 9.66732H9.13398C9.32067 9.66732 9.41401 9.66732 9.48531 9.63099C9.54804 9.59903 9.59903 9.54804 9.63099 9.48531C9.66732 9.41401 9.66732 9.32067 9.66732 9.13398V6.86732C9.66732 6.68063 9.66732 6.58729 9.63099 6.51599C9.59903 6.45327 9.54804 6.40227 9.48531 6.37032C9.41401 6.33398 9.32067 6.33398 9.13398 6.33398H6.86732C6.68063 6.33398 6.58729 6.33398 6.51599 6.37032C6.45327 6.40227 6.40227 6.45327 6.37032 6.51599C6.33398 6.58729 6.33398 6.68063 6.33398 6.86732V9.13398C6.33398 9.32067 6.33398 9.41401 6.37032 9.48531C6.40227 9.54804 6.45327 9.59903 6.51599 9.63099C6.58729 9.66732 6.68063 9.66732 6.86732 9.66732ZM11.8673 14.6673H14.134C14.3207 14.6673 14.414 14.6673 14.4853 14.631C14.548 14.599 14.599 14.548 14.631 14.4853C14.6673 14.414 14.6673 14.3207 14.6673 14.134V11.8673C14.6673 11.6806 14.6673 11.5873 14.631 11.516C14.599 11.4533 14.548 11.4023 14.4853 11.3703C14.414 11.334 14.3207 11.334 14.134 11.334H11.8673C11.6806 11.334 11.5873 11.334 11.516 11.3703C11.4533 11.4023 11.4023 11.4533 11.3703 11.516C11.334 11.5873 11.334 11.6806 11.334 11.8673V14.134C11.334 14.3207 11.334 14.414 11.3703 14.4853C11.4023 14.548 11.4533 14.599 11.516 14.631C11.5873 14.6673 11.6806 14.6673 11.8673 14.6673ZM1.86732 4.66732H4.13398C4.32067 4.66732 4.41401 4.66732 4.48531 4.63099C4.54804 4.59903 4.59903 4.54804 4.63099 4.48531C4.66732 4.41401 4.66732 4.32067 4.66732 4.13398V1.86732C4.66732 1.68063 4.66732 1.58729 4.63099 1.51599C4.59903 1.45327 4.54804 1.40227 4.48531 1.37032C4.41401 1.33398 4.32067 1.33398 4.13398 1.33398H1.86732C1.68063 1.33398 1.58729 1.33398 1.51599 1.37032C1.45327 1.40227 1.40227 1.45327 1.37032 1.51599C1.33398 1.58729 1.33398 1.68063 1.33398 1.86732V4.13398C1.33398 4.32067 1.33398 4.41401 1.37032 4.48531C1.40227 4.54804 1.45327 4.59903 1.51599 4.63099C1.58729 4.66732 1.68063 4.66732 1.86732 4.66732Z" stroke="#959595" stroke-width="1.33333" stroke-linecap="round" stroke-linejoin="round"/>
</g>
<defs>
<clipPath id="clip0_1326_7556">
<rect width="16" height="16" fill="white"/>
</clipPath>
</defs>
</svg>
