<svg width="40" height="20" viewBox="0 0 40 20" fill="none" xmlns="http://www.w3.org/2000/svg">
<path d="M22 2V14M17.2 2H22.8C23.9201 2 24.4802 2 24.908 2.21799C25.2843 2.40973 25.5903 2.71569 25.782 3.09202C26 3.51984 26 4.0799 26 5.2V10.8C26 11.9201 26 12.4802 25.782 12.908C25.5903 13.2843 25.2843 13.5903 24.908 13.782C24.4802 14 23.9201 14 22.8 14H17.2C16.0799 14 15.5198 14 15.092 13.782C14.7157 13.5903 14.4097 13.2843 14.218 12.908C14 12.4802 14 11.9201 14 10.8V5.2C14 4.07989 14 3.51984 14.218 3.09202C14.4097 2.71569 14.7157 2.40973 15.092 2.21799C15.5198 2 16.0799 2 17.2 2Z" stroke="#717171" stroke-width="1.33333" stroke-linecap="round" stroke-linejoin="round"/>
</svg>
